<svg width="32" height="32" viewBox="0 0 32 32" fill="none" xmlns="http://www.w3.org/2000/svg">
<path d="M7.02976 8.80913C9.13927 6.18311 12.3717 4.5 16.0013 4.5C22.3573 4.5 27.508 9.64962 27.508 16.0027C27.508 16.5678 27.4632 17.123 27.3809 17.6677L26.7015 16.9882C26.5063 16.793 26.1897 16.793 25.9944 16.9882C25.7991 17.1835 25.7991 17.5001 25.9944 17.6954L27.314 19.0149C27.3313 19.0353 27.3504 19.0545 27.371 19.072L27.6557 19.3567C27.851 19.5519 28.1676 19.5519 28.3628 19.3567L30.0242 17.6954C30.2194 17.5001 30.2194 17.1835 30.0242 16.9882C29.8289 16.793 29.5123 16.793 29.3171 16.9882L28.3477 17.9576C28.4509 17.3223 28.508 16.6701 28.508 16.0027C28.508 9.09705 22.9093 3.5 16.0013 3.5C12.0548 3.5 8.54064 5.33155 6.25015 8.18287C6.07721 8.39815 6.11154 8.71287 6.32682 8.8858C6.5421 9.05874 6.85682 9.02442 7.02976 8.80913Z" fill="#F2F2F2"/>
<path d="M10.6136 14.3049C10.6136 13.4997 11.2671 12.8462 12.0723 12.8462C12.8774 12.8462 13.5309 13.4997 13.5309 14.3049C13.5309 14.7609 13.3565 15.1027 13.0552 15.4225C12.7585 15.7373 12.3652 16.0051 11.9053 16.3183L11.791 16.3962C10.8252 17.0555 9.61492 17.9143 9.61492 19.6515C9.61492 19.9277 9.83878 20.1515 10.1149 20.1515H14.0309C14.3071 20.1515 14.5309 19.9277 14.5309 19.6515C14.5309 19.3754 14.3071 19.1515 14.0309 19.1515H10.6666C10.8519 18.3055 11.5159 17.7948 12.3548 17.2221L12.4839 17.1343C12.9221 16.8366 13.407 16.5072 13.7829 16.1083C14.2158 15.649 14.5309 15.0728 14.5309 14.3049C14.5309 12.9474 13.4297 11.8462 12.0723 11.8462C10.7148 11.8462 9.61359 12.9474 9.61359 14.3049C9.61359 14.581 9.83744 14.8049 10.1136 14.8049C10.3897 14.8049 10.6136 14.581 10.6136 14.3049Z" fill="#F2F2F2"/>
<path d="M3.63523 12.644C3.8305 12.4487 4.14708 12.4487 4.34234 12.644L4.64492 12.9466C4.6512 12.9525 4.65731 12.9587 4.66326 12.9649L6.00367 14.3053C6.19894 14.5006 6.19894 14.8172 6.00367 15.0124C5.80841 15.2077 5.49183 15.2077 5.29657 15.0124L4.61491 14.3308C4.53247 14.876 4.48761 15.4318 4.48761 15.9976C4.48761 22.3506 9.63828 27.5002 15.9943 27.5002H15.9996C19.6291 27.5002 22.8603 25.8172 24.9712 23.191C25.1442 22.9758 25.459 22.9415 25.6742 23.1145C25.8894 23.2875 25.9237 23.6023 25.7507 23.8175C23.4589 26.6686 19.9461 28.5002 15.9996 28.5002H15.9943C9.08628 28.5002 3.48761 22.9032 3.48761 15.9976C3.48761 15.3314 3.5445 14.6804 3.64732 14.0461L2.68101 15.0124C2.48574 15.2077 2.16916 15.2077 1.9739 15.0124C1.77864 14.8172 1.77864 14.5006 1.9739 14.3053L3.63523 12.644Z" fill="#F2F2F2"/>
<path d="M17.4964 11.8479C17.7725 11.8479 17.9964 12.0718 17.9964 12.3479V15.5056L20.6845 15.5345V12.4265C20.6845 12.1504 20.9084 11.9265 21.1845 11.9265C21.4607 11.9265 21.6845 12.1504 21.6845 12.4265V15.9775C21.6873 15.9997 21.6886 16.0223 21.6884 16.0453C21.6882 16.0645 21.6869 16.0835 21.6845 16.1022V19.6532C21.6845 19.9293 21.4607 20.1532 21.1845 20.1532C20.9084 20.1532 20.6845 19.9293 20.6845 19.6532V16.5345L17.8337 16.5039L17.832 16.5039C17.3722 16.4974 16.9964 16.1241 16.9964 15.6572V12.3479C16.9964 12.0718 17.2203 11.8479 17.4964 11.8479Z" fill="#F2F2F2"/>
</svg>
