<?xml version="1.0" standalone="no"?>
<!DOCTYPE svg PUBLIC "-//W3C//DTD SVG 20010904//EN"
 "http://www.w3.org/TR/2001/REC-SVG-20010904/DTD/svg10.dtd">
<svg version="1.0" xmlns="http://www.w3.org/2000/svg"
 width="150.000000pt" height="150.000000pt" viewBox="0 0 150.000000 150.000000"
 preserveAspectRatio="xMidYMid meet">
<metadata>
Created by potrace 1.14, written by Peter Selinger 2001-2017
</metadata>
<g transform="translate(0.000000,150.000000) scale(0.100000,-0.100000)"
fill="#000000" stroke="none">
<path d="M640 1489 c0 -7 -10 -9 -25 -7 -14 3 -25 1 -25 -4 0 -5 -9 -6 -20 -3
-12 4 -31 0 -45 -9 -13 -9 -32 -13 -41 -9 -14 5 -16 3 -10 -13 6 -15 5 -16 -5
-7 -10 10 -15 9 -26 -5 -8 -9 -12 -11 -8 -4 3 6 1 12 -4 12 -6 0 -11 -7 -11
-15 0 -14 -12 -19 -32 -16 -5 0 -8 -4 -8 -10 0 -5 -4 -7 -10 -4 -5 3 -10 1
-10 -5 0 -7 -7 -10 -15 -6 -9 3 -15 0 -15 -9 0 -8 -7 -15 -15 -15 -8 0 -15 -5
-15 -10 0 -6 -14 -19 -31 -29 -17 -10 -31 -23 -32 -27 -1 -5 -8 -8 -15 -6 -8
2 -12 -1 -9 -6 3 -4 -3 -14 -13 -22 -10 -8 -17 -17 -14 -22 3 -4 -2 -8 -11 -8
-9 0 -13 -5 -10 -10 3 -6 -4 -14 -17 -19 -13 -6 -17 -10 -10 -10 7 -1 10 -6 7
-11 -4 -6 -11 -7 -17 -4 -7 5 -9 2 -6 -8 4 -8 -2 -20 -14 -27 -10 -6 -18 -17
-15 -24 2 -6 -4 -18 -13 -27 -9 -8 -10 -11 -1 -5 12 9 12 7 2 -13 -7 -12 -16
-20 -21 -17 -4 3 -7 -3 -5 -12 1 -10 -5 -27 -14 -37 -10 -13 -11 -17 -2 -11 9
5 12 3 9 -6 -3 -8 -10 -13 -16 -12 -6 2 -9 -4 -6 -11 3 -8 1 -24 -6 -35 -8
-16 -8 -21 2 -21 10 0 10 -2 -1 -9 -7 -5 -10 -14 -7 -20 4 -6 2 -11 -3 -11 -7
0 -10 -47 -9 -136 2 -113 4 -132 15 -118 15 21 16 19 4 -23 -6 -21 -6 -35 0
-39 6 -3 8 -12 5 -20 -3 -7 0 -16 6 -20 7 -5 8 -2 3 6 -5 8 -4 11 3 6 6 -3 11
-14 11 -24 2 -46 6 -60 16 -59 5 1 9 -6 7 -17 -2 -11 1 -15 7 -11 7 3 11 -2
11 -14 0 -12 5 -21 11 -21 5 0 8 -4 5 -8 -3 -5 3 -18 14 -29 10 -12 16 -24 13
-27 -4 -3 -1 -6 6 -6 7 0 9 -4 6 -10 -3 -6 1 -7 10 -4 9 4 15 3 14 -2 -4 -18
14 -44 30 -44 14 0 14 -2 1 -10 -13 -8 -13 -10 1 -10 9 0 20 -7 23 -16 3 -8
10 -12 16 -9 5 3 10 -1 10 -9 0 -18 29 -35 48 -29 8 3 10 -1 6 -11 -4 -11 -1
-16 11 -16 10 0 15 -5 12 -13 -3 -8 1 -14 9 -14 7 0 11 5 7 10 -3 5 6 1 21 -8
14 -10 26 -21 26 -26 0 -5 8 -5 17 -2 12 5 15 2 11 -8 -4 -11 1 -15 23 -13 16
1 26 -2 23 -7 -5 -9 16 -13 44 -10 7 1 15 -5 19 -14 5 -13 7 -14 14 -3 7 10 9
10 9 1 0 -7 5 -13 11 -13 5 0 7 6 3 13 -4 6 3 3 16 -8 13 -11 20 -14 15 -6 -5
9 -3 12 6 9 8 -3 13 -11 11 -17 -2 -9 3 -9 17 -1 11 5 22 6 25 2 3 -5 57 -9
120 -9 64 0 113 3 111 8 -3 4 -1 10 5 14 5 3 10 1 10 -6 0 -8 6 -6 18 4 14 13
21 14 30 5 7 -7 12 -8 12 -2 0 10 6 12 50 16 11 1 20 8 20 15 0 6 9 10 20 8
11 -2 20 1 20 6 0 6 14 15 30 20 17 6 30 15 30 19 0 4 8 7 17 6 10 0 18 6 18
14 0 9 8 14 18 12 9 -2 17 2 17 8 0 5 8 10 18 10 14 0 15 2 2 10 -13 8 -12 10
5 11 11 1 24 1 28 0 5 -1 6 2 3 7 -7 11 30 42 40 34 4 -4 4 -1 0 6 -4 7 -1 15
9 18 9 4 14 13 11 20 -3 9 1 11 12 7 9 -3 14 -3 10 1 -4 5 2 18 13 29 11 12
17 28 14 36 -5 12 -3 12 12 0 15 -12 16 -12 11 3 -4 10 -1 19 8 22 8 3 14 17
14 31 0 15 4 24 9 20 5 -3 11 5 13 17 2 13 9 22 17 20 12 -3 12 0 2 12 -8 10
-9 16 -1 21 6 3 8 11 5 16 -4 5 2 12 11 16 16 6 16 7 -2 14 -14 6 -15 8 -3 8
11 1 15 11 14 34 0 17 5 41 11 52 17 27 17 225 1 225 -7 0 -6 4 3 10 13 8 13
11 1 22 -11 11 -13 11 -6 -1 6 -10 4 -12 -4 -7 -9 6 -9 11 0 22 6 8 7 14 2 14
-5 0 -9 14 -8 30 1 21 -2 29 -10 26 -8 -3 -11 5 -9 24 2 16 -1 32 -6 35 -6 4
-8 11 -5 16 4 5 0 9 -8 9 -10 0 -13 7 -10 18 2 10 -5 26 -16 36 -12 11 -21 26
-21 35 0 9 -12 27 -25 40 -14 13 -24 26 -21 28 7 7 -18 32 -26 27 -4 -2 -9 5
-13 16 -3 11 -13 20 -21 20 -9 0 -12 5 -8 12 5 8 2 9 -11 4 -16 -6 -16 -4 -4
11 9 11 10 14 2 9 -8 -4 -13 -2 -13 5 0 7 -3 9 -6 6 -4 -3 -18 6 -33 21 -14
15 -33 28 -41 30 -21 5 -41 23 -35 32 3 4 -8 7 -24 6 -22 -1 -27 2 -23 13 3 9
1 12 -6 7 -7 -4 -12 -3 -12 3 0 6 -7 8 -15 5 -8 -3 -17 0 -20 8 -3 8 -17 13
-35 12 -17 -1 -30 2 -30 8 0 5 -4 6 -10 3 -5 -3 -10 -1 -10 5 0 7 -8 9 -20 5
-12 -4 -20 -2 -20 5 0 7 -8 9 -21 5 -12 -4 -19 -3 -16 2 3 5 -40 10 -95 11
-80 3 -98 0 -92 -10 5 -10 4 -11 -7 0 -16 15 -39 16 -39 1z"/>
</g>
</svg>
