<?xml version="1.0" encoding="utf-8"?><svg xmlns="http://www.w3.org/2000/svg" xmlns:xlink="http://www.w3.org/1999/xlink"><symbol fill="none" viewBox="0 0 32 32" id="doc" xmlns="http://www.w3.org/2000/svg"><path d="M10.165 22.667a.5.5 0 01.5-.5H21.33a.5.5 0 110 1H10.665a.5.5 0 01-.5-.5zM10.665 17.499a.5.5 0 100 1H21.33a.5.5 0 100-1H10.665zM10.165 13.334a.5.5 0 01.5-.5h4a.5.5 0 110 1h-4a.5.5 0 01-.5-.5z" fill="#fff"/><path fill-rule="evenodd" clip-rule="evenodd" d="M4.837 8a4.5 4.5 0 014.5-4.5h10.17a4.5 4.5 0 013.183 1.318l3.162 3.162a4.5 4.5 0 011.318 3.182V24a4.5 4.5 0 01-4.5 4.5H9.337a4.5 4.5 0 01-4.5-4.5V8zm21.317 2.833a3.5 3.5 0 00-1.01-2.146l-3.161-3.162a3.5 3.5 0 00-2.146-1.01v4.152c0 1.196.97 2.166 2.166 2.166h4.151zM18.837 4.5v4.167a3.167 3.167 0 003.166 3.166h4.167V24a3.5 3.5 0 01-3.5 3.5H9.337a3.5 3.5 0 01-3.5-3.5V8a3.5 3.5 0 013.5-3.5h9.5z" fill="#fff"/></symbol><symbol fill="none" viewBox="0 0 32 32" id="protection" xmlns="http://www.w3.org/2000/svg"><path fill-rule="evenodd" clip-rule="evenodd" d="M13.168 13.667a2.833 2.833 0 115.667 0v1.168a1.75 1.75 0 011.665 1.748v2.834a1.75 1.75 0 01-1.75 1.75h-5.5a1.75 1.75 0 01-1.75-1.75v-2.834c0-.939.74-1.705 1.668-1.748v-1.168zm5.167 2.167H13.25a.75.75 0 00-.75.75v2.833c0 .414.336.75.75.75h5.5a.75.75 0 00.75-.75v-2.834a.75.75 0 00-.75-.75H18.335zm-.5-2.167v1.166h-3.667v-1.166a1.833 1.833 0 013.667 0z" fill="#fff"/><path fill-rule="evenodd" clip-rule="evenodd" d="M14.068 5.473a3.237 3.237 0 013.862 0 14.69 14.69 0 007.57 2.799l.017.001a1.85 1.85 0 011.648 1.813V17.36c0 2.727-1.673 5.045-3.628 6.83-1.966 1.796-4.298 3.13-5.792 3.889a3.84 3.84 0 01-3.488.003c-1.493-.76-3.826-2.095-5.793-3.892-1.956-1.787-3.632-4.105-3.632-6.83v-7.276A1.85 1.85 0 016.48 8.274l.017-.001a14.69 14.69 0 007.57-2.8zm.595.803a2.237 2.237 0 012.671 0l.003.002a15.69 15.69 0 008.078 2.99.85.85 0 01.75.829v7.264c0 2.306-1.422 4.375-3.303 6.092-1.869 1.708-4.11 2.994-5.57 3.735v.001a2.84 2.84 0 01-2.582.002c-1.458-.74-3.7-2.029-5.572-3.738-1.882-1.719-3.306-3.788-3.306-6.092v-7.264a.85.85 0 01.75-.829 15.69 15.69 0 008.078-2.99l.003-.002z" fill="#fff"/></symbol><symbol fill="none" viewBox="0 0 32 32" id="time" xmlns="http://www.w3.org/2000/svg"><path d="M7.03 8.81A11.479 11.479 0 0116 4.5c6.356 0 11.507 5.15 11.507 11.503 0 .565-.045 1.12-.127 1.665l-.68-.68a.5.5 0 00-.707.707l1.32 1.32c.017.02.036.04.057.057l.285.285a.5.5 0 00.707 0l1.661-1.662a.5.5 0 00-.707-.707l-.97.97c.104-.636.161-1.288.161-1.955 0-6.906-5.599-12.503-12.507-12.503-3.946 0-7.46 1.832-9.75 4.683a.5.5 0 10.779.626z" fill="#F2F2F2"/><path d="M10.614 14.305a1.46 1.46 0 012.917 0c0 .456-.175.798-.476 1.117-.296.315-.69.583-1.15.896l-.114.078c-.966.66-2.176 1.518-2.176 3.255a.5.5 0 00.5.5h3.916a.5.5 0 100-1h-3.364c.185-.846.849-1.356 1.688-1.929l.129-.088c.438-.297.923-.627 1.299-1.026.433-.459.748-1.035.748-1.803a2.46 2.46 0 00-4.917 0 .5.5 0 001 0z" fill="#F2F2F2"/><path d="M3.635 12.644a.5.5 0 01.707 0l.303.303a.502.502 0 01.018.018l1.34 1.34a.5.5 0 11-.706.707l-.682-.681a11.135 11.135 0 00-.127 1.667c0 6.353 5.15 11.502 11.506 11.502H16c3.63 0 6.86-1.683 8.971-4.309a.5.5 0 01.78.627A12.481 12.481 0 0116 28.5h-.006c-6.908 0-12.506-5.597-12.506-12.502 0-.667.057-1.318.16-1.952l-.967.966a.5.5 0 11-.707-.707l1.661-1.661zM17.496 11.848a.5.5 0 01.5.5v3.158l2.689.028v-3.107a.5.5 0 011 0v3.55a.506.506 0 010 .125v3.551a.5.5 0 11-1 0v-3.118l-2.851-.031h-.002a.847.847 0 01-.836-.847v-3.31a.5.5 0 01.5-.5z" fill="#F2F2F2"/></symbol><symbol fill="none" viewBox="0 0 16 16" id="warning" xmlns="http://www.w3.org/2000/svg"><path d="M8.895 5.83V13H7.111V5.83h1.784zM7 3.96c0-.277.09-.507.272-.688C7.452 3.09 7.695 3 8 3c.3 0 .541.09.722.272.185.18.278.41.278.689a.923.923 0 01-.278.69c-.18.18-.422.27-.722.27-.305 0-.547-.09-.728-.27A.934.934 0 017 3.96z" fill="#C5C5C5"/><rect x=".5" y=".5" width="15" height="15" rx="7.5" stroke="#C5C5C5"/></symbol></svg>