<?xml version="1.0" encoding="utf-8"?><svg xmlns="http://www.w3.org/2000/svg" xmlns:xlink="http://www.w3.org/1999/xlink"><symbol viewBox="0 0 24 24" id="socials_phone" xmlns="http://www.w3.org/2000/svg"><path clip-rule="evenodd" d="M10.856 13.144a12.634 12.634 0 01-2.638-3.809.749.749 0 01.166-.827l.819-.818c.67-.671.67-1.62.085-2.206L8.114 4.31a2 2 0 00-2.828 0l-.652.652c-.741.741-1.05 1.81-.85 2.87.494 2.613 2.012 5.474 4.46 7.923 2.45 2.449 5.31 3.967 7.924 4.461 1.06.2 2.129-.109 2.87-.85l.65-.651a2 2 0 000-2.828l-1.172-1.173a1.5 1.5 0 00-2.121 0l-.903.904a.749.749 0 01-.827.166 12.66 12.66 0 01-3.81-2.64z"/></symbol><symbol viewBox="0 0 24 24" id="socials_telegram" xmlns="http://www.w3.org/2000/svg"><g clip-path="url(#bclip0_314_132)"><path clip-rule="evenodd" d="M24 12c0 6.627-5.373 12-12 12S0 18.627 0 12 5.373 0 12 0s12 5.373 12 12zM12.43 8.859c-1.167.485-3.5 1.49-6.998 3.014-.568.226-.866.447-.893.663-.046.366.412.51 1.034.705.085.027.173.054.263.084.613.199 1.437.432 1.865.441.389.008.823-.152 1.302-.48 3.268-2.207 4.955-3.322 5.061-3.346.075-.017.179-.039.249.024.07.062.063.18.056.212-.046.193-1.84 1.862-2.77 2.726-.29.269-.495.46-.537.504-.094.097-.19.19-.282.279-.57.548-.996.96.024 1.632.49.323.882.59 1.273.856.427.291.853.581 1.405.943.14.092.274.187.405.28.497.355.944.673 1.496.623.32-.03.652-.331.82-1.23.397-2.126 1.179-6.73 1.36-8.628a2.112 2.112 0 00-.02-.472.506.506 0 00-.172-.325c-.143-.117-.365-.142-.465-.14-.451.008-1.143.249-4.476 1.635z"/></g><defs><clipPath id="bclip0_314_132"><path d="M0 0h24v24H0z"/></clipPath></defs></symbol><symbol viewBox="0 0 24 24" id="socials_vk" xmlns="http://www.w3.org/2000/svg"><g clip-path="url(#cclip0_314_129)"><path clip-rule="evenodd" d="M20.655 13.845c.796.777 1.637 1.508 2.35 2.364.316.38.615.773.843 1.214.324.627.03 1.318-.532 1.355l-3.496-.002c-.902.075-1.621-.288-2.226-.904-.484-.494-.933-1.018-1.398-1.528a3.313 3.313 0 00-.63-.56c-.476-.31-.89-.214-1.164.284-.277.506-.34 1.067-.368 1.63-.037.824-.286 1.04-1.113 1.078-1.767.084-3.445-.184-5.003-1.075-1.374-.786-2.44-1.896-3.366-3.152-1.806-2.446-3.188-5.134-4.43-7.897-.28-.623-.076-.957.611-.969 1.14-.022 2.281-.02 3.423-.002.464.007.77.273.95.711.617 1.517 1.372 2.961 2.32 4.3.252.355.51.712.876.963.405.277.714.185.905-.266.12-.287.174-.595.201-.902.09-1.055.102-2.109-.056-3.16-.097-.657-.467-1.082-1.122-1.206-.334-.063-.284-.188-.123-.378.281-.33.546-.534 1.073-.534h3.951c.622.123.76.402.845 1.028l.004 4.39c-.007.242.12.96.557 1.121.35.114.58-.165.79-.387.946-1.004 1.62-2.19 2.224-3.42.268-.54.498-1.1.721-1.661.165-.416.425-.621.893-.612l3.803.003c.113 0 .227.002.336.02.641.11.817.386.619 1.011-.312.982-.919 1.8-1.512 2.622-.634.878-1.313 1.726-1.941 2.608-.578.806-.532 1.213.185 1.913z"/></g><defs><clipPath id="cclip0_314_129"><path d="M0 0h24v24H0z"/></clipPath></defs></symbol><symbol viewBox="0 0 24 24" id="socials_whatsapp" xmlns="http://www.w3.org/2000/svg"><g clip-path="url(#dclip0_314_135)"><path d="M.927 23.077l1.56-5.732a11.485 11.485 0 01-1.565-5.806C.922 5.166 6.088 0 12.46 0 18.833 0 24 5.166 24 11.539c0 6.372-5.166 11.538-11.539 11.538a11.485 11.485 0 01-5.804-1.564l-5.73 1.564zm7.37-16.952c-.15.009-.295.048-.429.115-.125.07-.24.16-.34.263-.138.13-.216.244-.3.353a3.149 3.149 0 00-.652 1.936c.002.566.15 1.116.38 1.63.472 1.041 1.249 2.143 2.275 3.164.247.246.488.493.747.723a10.9 10.9 0 004.431 2.36l.657.101c.213.012.427-.005.641-.015.336-.017.664-.108.961-.267.152-.077.299-.162.442-.253 0 0 .05-.033.145-.104a2.65 2.65 0 00.38-.332c.096-.1.18-.216.243-.349.09-.188.18-.547.217-.846.027-.228.02-.353.016-.43-.005-.124-.108-.252-.22-.306l-.671-.301s-1.004-.437-1.617-.717a.573.573 0 00-.204-.047.556.556 0 00-.436.147v-.003c-.006 0-.083.066-.917 1.077a.403.403 0 01-.425.15 1.635 1.635 0 01-.22-.076c-.143-.06-.193-.083-.291-.126l-.006-.002a6.935 6.935 0 01-1.811-1.154c-.146-.127-.28-.266-.42-.4a7.265 7.265 0 01-1.176-1.463l-.068-.11a1.064 1.064 0 01-.118-.236c-.044-.17.07-.305.07-.305s.28-.307.411-.474a5.06 5.06 0 00.304-.43c.136-.22.179-.444.107-.618a95.754 95.754 0 00-1.002-2.355c-.068-.155-.27-.266-.453-.288-.062-.007-.125-.014-.187-.018a3.906 3.906 0 00-.465.004v.002z"/></g><defs><clipPath id="dclip0_314_135"><path d="M0 0h24v24H0z"/></clipPath></defs></symbol></svg>