<svg width="70" height="70" viewBox="0 0 70 70" fill="none" xmlns="http://www.w3.org/2000/svg">
<path fill-rule="evenodd" clip-rule="evenodd" d="M4.33331 14.5833C4.33331 10.5332 7.61656 7.25 11.6666 7.25H14.5833C15.4117 7.25 16.0833 7.92157 16.0833 8.75C16.0833 9.57843 15.4117 10.25 14.5833 10.25H11.6666C9.27341 10.25 7.33331 12.1901 7.33331 14.5833V17.5C7.33331 18.3284 6.66174 19 5.83331 19C5.00489 19 4.33331 18.3284 4.33331 17.5V14.5833ZM53.9166 8.75C53.9166 7.92157 54.5882 7.25 55.4166 7.25H58.3333C62.3834 7.25 65.6666 10.5332 65.6666 14.5833V17.5C65.6666 18.3284 64.9951 19 64.1666 19C63.3382 19 62.6666 18.3284 62.6666 17.5V14.5833C62.6666 12.1901 60.7265 10.25 58.3333 10.25H55.4166C54.5882 10.25 53.9166 9.57843 53.9166 8.75ZM26.2166 18.9333C27.6016 17.0868 29.7751 16 32.0833 16H37.9166C40.2249 16 42.3984 17.0868 43.7833 18.9333L45.9583 21.8333H49.5833C53.6334 21.8333 56.9166 25.1166 56.9166 29.1667V43.75C56.9166 47.8001 53.6334 51.0833 49.5833 51.0833H20.4166C16.3666 51.0833 13.0833 47.8001 13.0833 43.75V29.1667C13.0833 25.1166 16.3666 21.8333 20.4166 21.8333H24.0416L26.2166 18.9333ZM32.0833 19C30.7194 19 29.435 19.6422 28.6166 20.7333L26.4291 23.65C25.8705 24.3949 24.9936 24.8333 24.0625 24.8333H20.4166C18.0234 24.8333 16.0833 26.7734 16.0833 29.1667V43.75C16.0833 46.1432 18.0234 48.0833 20.4166 48.0833H49.5833C51.9765 48.0833 53.9166 46.1432 53.9166 43.75V29.1667C53.9166 26.7734 51.9765 24.8333 49.5833 24.8333H45.9375C45.0063 24.8333 44.1295 24.3949 43.5708 23.65L41.3833 20.7333C40.5649 19.6422 39.2806 19 37.9166 19H32.0833ZM35 29.9375C32.204 29.9375 29.9375 32.2041 29.9375 35C29.9375 37.7959 32.204 40.0625 35 40.0625C37.7959 40.0625 40.0625 37.7959 40.0625 35C40.0625 32.2041 37.7959 29.9375 35 29.9375ZM26.9375 35C26.9375 30.5472 30.5472 26.9375 35 26.9375C39.4528 26.9375 43.0625 30.5472 43.0625 35C43.0625 39.4528 39.4528 43.0625 35 43.0625C30.5472 43.0625 26.9375 39.4528 26.9375 35ZM5.83331 51C6.66174 51 7.33331 51.6716 7.33331 52.5V55.4167C7.33331 57.8099 9.27341 59.75 11.6666 59.75H14.5833C15.4117 59.75 16.0833 60.4216 16.0833 61.25C16.0833 62.0784 15.4117 62.75 14.5833 62.75H11.6666C7.61656 62.75 4.33331 59.4668 4.33331 55.4167V52.5C4.33331 51.6716 5.00489 51 5.83331 51ZM64.1666 51C64.9951 51 65.6666 51.6716 65.6666 52.5V55.4167C65.6666 59.4668 62.3834 62.75 58.3333 62.75H55.4166C54.5882 62.75 53.9166 62.0784 53.9166 61.25C53.9166 60.4216 54.5882 59.75 55.4166 59.75H58.3333C60.7265 59.75 62.6666 57.8099 62.6666 55.4167V52.5C62.6666 51.6716 63.3382 51 64.1666 51Z" fill="white"/>
</svg>
