<svg width="70" height="70" viewBox="0 0 70 70" fill="none" xmlns="http://www.w3.org/2000/svg">
<path d="M13.1479 29.3307C14.6278 16.0944 26.3129 6.40007 39.5948 7.38938C52.8767 8.3787 62.9966 19.6972 62.4992 33.0067C62.0018 46.3161 51.0653 56.8477 37.7466 56.8429C36.9181 56.8426 36.2463 57.5139 36.246 58.3423C36.2457 59.1707 36.917 59.8426 37.7455 59.8429C52.6779 59.8483 64.9394 48.0407 65.4971 33.1187C66.0548 18.1967 54.7088 5.50685 39.8176 4.39767C24.9265 3.28849 11.8257 14.1574 10.1665 28.9974C10.0745 29.8207 10.6673 30.5627 11.4906 30.6547C12.3139 30.7468 13.0559 30.154 13.1479 29.3307Z" fill="white"/>
<path d="M38.4229 20.3666C38.4229 19.5382 37.7513 18.8666 36.9229 18.8666C36.0944 18.8666 35.4229 19.5382 35.4229 20.3666V33.9377C35.4229 34.4608 35.6954 34.9461 36.142 35.2184L46.8098 41.7224C47.5171 42.1536 48.4401 41.9298 48.8714 41.2225C49.3026 40.5152 49.0788 39.5922 48.3715 39.1609L38.4229 33.0954V20.3666Z" fill="white"/>
<path d="M22.4429 46.582C23.0289 47.1676 23.0292 48.1174 22.4436 48.7033L17.5824 53.5675C17.3011 53.8489 16.9195 54.0071 16.5216 54.0071C16.1237 54.0072 15.7421 53.8491 15.4607 53.5678L12.5429 50.6499C11.9571 50.0641 11.9571 49.1144 12.5429 48.5286C13.1286 47.9428 14.0784 47.9428 14.6642 48.5286L16.5211 50.3855L20.3216 46.5827C20.9072 45.9967 21.857 45.9964 22.4429 46.582Z" fill="white"/>
<path fill-rule="evenodd" clip-rule="evenodd" d="M11.6571 36.4177C7.60562 36.4177 4.32129 39.702 4.32129 43.7534V55.425C4.32129 59.4764 7.60562 62.7607 11.6571 62.7607H23.3286C27.38 62.7607 30.6643 59.4764 30.6643 55.425V43.7534C30.6643 39.702 27.38 36.4177 23.3286 36.4177H11.6571ZM7.32129 43.7534C7.32129 41.3589 9.26248 39.4177 11.6571 39.4177H23.3286C25.7232 39.4177 27.6643 41.3589 27.6643 43.7534V55.425C27.6643 57.8195 25.7232 59.7607 23.3286 59.7607H11.6571C9.26248 59.7607 7.32129 57.8195 7.32129 55.425V43.7534Z" fill="white"/>
</svg>
