<svg width="70" height="70" viewBox="0 0 70 70" fill="none" xmlns="http://www.w3.org/2000/svg">
<path fill-rule="evenodd" clip-rule="evenodd" d="M44.5993 18.5515C44.603 18.5547 44.6068 18.5579 44.6106 18.561L56.5215 28.7706C56.53 28.7781 56.5387 28.7855 56.5474 28.7928L60.285 31.9965C60.9139 32.5357 61.8609 32.4628 62.4 31.8338C62.9392 31.2049 62.8663 30.2579 62.2374 29.7188L59.0101 26.9525V10.9277C59.0101 8.89062 57.3587 7.23926 55.3216 7.23926H47.7617C45.7246 7.23926 44.0733 8.89062 44.0733 10.9277V14.1492L39.7743 10.4643C37.0271 8.10955 32.9733 8.10955 30.2261 10.4643L7.76309 29.7188C7.1341 30.2579 7.06127 31.2049 7.60041 31.8338C8.13955 32.4628 9.0865 32.5357 9.71548 31.9965L10.9902 30.9039V56.8433H8.73928C7.91086 56.8433 7.23928 57.5149 7.23928 58.3433C7.23928 59.1718 7.91086 59.8433 8.73928 59.8433H29.1582L29.1641 59.8434L29.17 59.8433H35.0002C35.8286 59.8433 36.5002 59.1718 36.5002 58.3433C36.5002 57.5149 35.8286 56.8433 35.0002 56.8433H30.6641V43.7539C30.6641 42.9709 31.2989 42.3361 32.082 42.3361H37.9177C38.7462 42.3361 39.4177 41.6645 39.4177 40.8361C39.4177 40.0076 38.7462 39.3361 37.9177 39.3361H32.082C29.642 39.3361 27.6641 41.314 27.6641 43.7539V56.8433H13.9902V28.3324L32.1785 12.7421C33.8022 11.3503 36.1982 11.3503 37.8219 12.7421L44.5847 18.5389C44.5895 18.5431 44.5944 18.5473 44.5993 18.5515ZM47.0733 10.9277C47.0733 10.5475 47.3815 10.2393 47.7617 10.2393H55.3216C55.7019 10.2393 56.0101 10.5475 56.0101 10.9277V24.381L47.0733 16.7207V10.9277Z" fill="white"/>
<path fill-rule="evenodd" clip-rule="evenodd" d="M55.4665 40.8361C55.4665 40.0076 54.7949 39.3361 53.9665 39.3361C53.1381 39.3361 52.4665 40.0076 52.4665 40.8361C52.4665 45.6479 48.5658 49.5486 43.7539 49.5486C42.9255 49.5486 42.2539 50.2202 42.2539 51.0486C42.2539 51.8771 42.9255 52.5486 43.7539 52.5486C48.5658 52.5486 52.4665 56.4494 52.4665 61.2612C52.4665 62.0897 53.1381 62.7612 53.9665 62.7612C54.7949 62.7612 55.4665 62.0897 55.4665 61.2612C55.4665 56.4494 59.3673 52.5486 64.1791 52.5486C65.0075 52.5486 65.6791 51.8771 65.6791 51.0486C65.6791 50.2202 65.0075 49.5486 64.1791 49.5486C59.3673 49.5486 55.4665 45.6479 55.4665 40.8361ZM49.493 51.0486C51.3624 49.9958 52.9137 48.4445 53.9665 46.5751C55.0193 48.4445 56.5706 49.9958 58.4401 51.0486C56.5706 52.1015 55.0193 53.6527 53.9665 55.5222C52.9137 53.6527 51.3624 52.1015 49.493 51.0486Z" fill="white"/>
</svg>
