<svg width="281" height="456" viewBox="0 0 281 456" fill="none" xmlns="http://www.w3.org/2000/svg">
<path fill-rule="evenodd" clip-rule="evenodd" d="M181.796 47.3689C182.519 45.1967 179.616 43.7108 178.277 45.5672L2.69322 288.871C1.73865 290.194 2.68381 292.042 4.31501 292.042H101.995C103.397 292.042 104.364 293.447 103.863 294.757L47.5061 441.978C46.6744 444.151 49.5961 445.753 50.9811 443.884L218.17 218.192C219.147 216.873 218.205 215.002 216.562 215.002H128.798C127.433 215.002 126.469 213.665 126.9 212.371L181.796 47.3689Z" fill="#F2F2F2"/>
<path opacity="0.2" d="M64.6709 254.814L239.013 13.23L184.632 176.683C183.717 179.434 185.765 182.274 188.665 182.274H275.933L110.128 406.099L165.831 260.584C166.896 257.801 164.842 254.814 161.862 254.814H64.6709Z" stroke="#F2F2F2" stroke-width="4.5" stroke-linecap="round" stroke-linejoin="round"/>
</svg>
