<svg width="24" height="24" viewBox="0 0 24 24" fill="none" xmlns="http://www.w3.org/2000/svg">
<g clip-path="url(#clip0_314_135)">
<path d="M0.926506 23.0769L2.48651 17.3446C1.45859 15.5825 0.91854 13.5784 0.92189 11.5385C0.92189 5.16577 6.08766 0 12.4603 0C18.833 0 23.9988 5.16577 23.9988 11.5385C23.9988 17.9111 18.833 23.0769 12.4603 23.0769C10.4212 23.0802 8.41803 22.5406 6.6565 21.5135L0.926506 23.0769ZM8.29612 6.12461C8.14711 6.13386 8.00151 6.17311 7.86804 6.24C7.74287 6.31088 7.62861 6.39949 7.52881 6.50307C7.39035 6.63346 7.31189 6.74653 7.22766 6.85615C6.80121 7.41115 6.57182 8.0924 6.57573 8.7923C6.57804 9.35769 6.72573 9.90807 6.9565 10.4227C7.42843 11.4635 8.20496 12.5654 9.23073 13.5865C9.47766 13.8323 9.71881 14.0792 9.97842 14.3088C11.2516 15.4298 12.7687 16.2381 14.4092 16.6696L15.0657 16.77C15.2792 16.7815 15.4927 16.7654 15.7073 16.755C16.0433 16.7376 16.3714 16.6467 16.6684 16.4885C16.8195 16.4106 16.967 16.3259 17.1103 16.2346C17.1103 16.2346 17.16 16.2023 17.2546 16.1308C17.4103 16.0154 17.5061 15.9335 17.6353 15.7985C17.7311 15.6992 17.8142 15.5827 17.8777 15.45C17.9676 15.2619 18.0576 14.9031 18.0946 14.6042C18.1223 14.3758 18.1142 14.2511 18.1107 14.1738C18.1061 14.0504 18.0034 13.9223 17.8915 13.8681L17.22 13.5669C17.22 13.5669 16.2161 13.1296 15.6034 12.8504C15.5388 12.8222 15.4696 12.8062 15.3992 12.8031C15.3202 12.795 15.2405 12.8038 15.1652 12.8291C15.09 12.8544 15.0211 12.8955 14.963 12.9496V12.9473C14.9573 12.9473 14.88 13.0131 14.0457 14.0238C13.9978 14.0882 13.9319 14.1368 13.8563 14.1635C13.7806 14.1902 13.6988 14.1938 13.6211 14.1738C13.5459 14.1537 13.4723 14.1283 13.4007 14.0977C13.2577 14.0377 13.208 14.0146 13.11 13.9719L13.1042 13.9696C12.4441 13.6814 11.8329 13.2921 11.2927 12.8158C11.1473 12.6888 11.0123 12.5504 10.8738 12.4165C10.4199 11.9818 10.0242 11.49 9.69689 10.9535L9.62881 10.8438C9.57991 10.7702 9.54038 10.6907 9.51112 10.6073C9.46727 10.4377 9.5815 10.3015 9.5815 10.3015C9.5815 10.3015 9.86189 9.99461 9.99227 9.82846C10.1008 9.69037 10.2021 9.54671 10.2957 9.39807C10.4319 9.17884 10.4746 8.95384 10.403 8.77961C10.08 7.99038 9.74535 7.20461 9.4015 6.42461C9.33342 6.27 9.1315 6.15923 8.94804 6.1373C8.88573 6.13038 8.82342 6.12346 8.76112 6.11884C8.60616 6.11114 8.45089 6.11269 8.29612 6.12346V6.12461Z" fill="#F2F2F2"/>
</g>
<defs>
<clipPath id="clip0_314_135">
<rect width="24" height="24" fill="white"/>
</clipPath>
</defs>
</svg>
