<svg width="70" height="70" viewBox="0 0 70 70" fill="none" xmlns="http://www.w3.org/2000/svg">
<path fill-rule="evenodd" clip-rule="evenodd" d="M13.083 27.6665V26.9384C13.083 22.4571 15.5684 18.3533 19.522 16.2729L22.0954 13.6994C24.3575 11.4373 27.4256 10.1665 30.6247 10.1665C33.8238 10.1665 36.8918 11.4373 39.1539 13.6994L41.7274 16.2729C45.681 18.3533 48.1664 22.4571 48.1663 26.9384V27.6665H49.1958C50.9133 27.6665 52.5718 28.2387 53.9164 29.2776V26.4551C53.9164 24.0032 55.1418 21.7135 57.1819 20.3534L63.3343 16.2518C64.0236 15.7923 64.9549 15.9785 65.4144 16.6678C65.874 17.3571 65.6877 18.2884 64.9984 18.748L58.846 22.8496C57.6405 23.6533 56.9164 25.0063 56.9164 26.4551V35.3182C56.9166 35.3412 56.9167 35.3643 56.9167 35.3874C56.9167 35.4104 56.9166 35.4333 56.9164 35.4563V54.2084C56.9164 55.7002 56.3237 57.1309 55.2689 58.1857C54.214 59.2406 52.7834 59.8332 51.2916 59.8332C49.7998 59.8332 48.3691 59.2406 47.3143 58.1858L42.1805 53.052C41.0899 53.6678 39.8494 53.9998 38.5744 53.9998H33.474C32.7482 58.9497 28.4844 62.7499 23.333 62.7499C17.6721 62.7499 13.083 58.1608 13.083 52.4999C13.083 49.8765 14.0686 47.4833 15.6896 45.6703L8.5903 37.1512C7.72428 36.112 7.25 34.802 7.25 33.4492C7.25 30.2555 9.83902 27.6665 13.0327 27.6665H13.083ZM24.2167 15.8208C25.9162 14.1213 28.2212 13.1665 30.6247 13.1665C33.0281 13.1665 35.3331 14.1213 37.0326 15.8208L39.7723 18.5605C39.8864 18.6745 40.018 18.7694 40.1622 18.8415C43.2291 20.3749 45.1664 23.5095 45.1663 26.9384V27.6665H16.083V26.9384C16.083 23.5095 18.0203 20.3749 21.0872 18.8415C21.2314 18.7694 21.363 18.6745 21.477 18.5605L24.2167 15.8208ZM17.9934 43.7488L10.895 35.2306C10.4782 34.7306 10.25 34.1002 10.25 33.4492C10.25 31.9124 11.4959 30.6665 13.0327 30.6665H49.1958C50.4479 30.6665 51.6486 31.1639 52.534 32.0492C53.4066 32.9218 53.9023 34.1008 53.9164 35.3333V35.4413C53.9024 36.6657 53.413 37.8376 52.5506 38.7087L41.6539 49.7152C41.6264 49.743 41.5985 49.7704 41.5704 49.7973C41.4655 49.8598 41.3665 49.9362 41.2763 50.0264C41.2449 50.0578 41.2152 50.0903 41.1871 50.1236C40.4393 50.6888 39.523 50.9998 38.5744 50.9998H33.474C32.7482 46.05 28.4844 42.2499 23.333 42.2499C21.3768 42.2499 19.5485 42.7979 17.9934 43.7488ZM18.4541 47.1371C18.5461 47.0887 18.6344 47.03 18.7175 46.9608C18.8009 46.8913 18.8749 46.8146 18.9392 46.7325C20.1583 45.8023 21.6812 45.2499 23.333 45.2499C27.3371 45.2499 30.583 48.4958 30.583 52.4999C30.583 56.5039 27.3371 59.7499 23.333 59.7499C19.3289 59.7499 16.083 56.5039 16.083 52.4999C16.083 50.3748 16.9973 48.4632 18.4541 47.1371ZM44.4879 51.1167L49.4356 56.0644C49.9278 56.5567 50.5954 56.8332 51.2916 56.8332C51.9877 56.8332 52.6553 56.5567 53.1476 56.0644C53.6398 55.5722 53.9164 54.9046 53.9164 54.2084V41.5932L44.4879 51.1167Z" fill="white"/>
</svg>
