<svg width="70" height="70" viewBox="0 0 70 70" fill="none" xmlns="http://www.w3.org/2000/svg">
<path d="M10.208 30.6665C8.62019 30.6665 7.33301 31.9537 7.33301 33.5415V52.6619C7.33301 54.2404 7.7005 55.7971 8.40637 57.209L10.0913 60.579C10.4618 61.32 10.1614 62.221 9.42047 62.5915C8.67949 62.962 7.77849 62.6616 7.40802 61.9206L5.72306 58.5505C4.80892 56.7222 4.33301 54.7061 4.33301 52.6619V33.5415C4.33301 30.2968 6.96333 27.6665 10.208 27.6665C13.4527 27.6665 16.083 30.2968 16.083 33.5415V40.2381C17.1767 39.5743 18.4597 39.2566 19.7598 39.349C21.5627 39.4771 23.2212 40.3813 24.3057 41.8272L29.1997 48.3526C30.1517 49.6219 30.6663 51.1658 30.6663 52.7526V61.2498C30.6663 62.0782 29.9948 62.7498 29.1663 62.7498C28.3379 62.7498 27.6663 62.0782 27.6663 61.2498V52.7526C27.6663 51.815 27.3622 50.9026 26.7997 50.1526L21.9057 43.6272C21.343 42.877 20.4825 42.4079 19.5472 42.3414C18.6118 42.2749 17.6936 42.6176 17.0305 43.2807C15.8922 44.419 15.7642 46.2211 16.73 47.5089L19.7982 51.5998C20.2953 52.2625 20.161 53.2027 19.4982 53.6998C18.8355 54.1969 17.8953 54.0625 17.3982 53.3998L14.3301 49.3089C13.4868 48.1846 13.0762 46.857 13.0831 45.537L13.083 45.5204V33.5415C13.083 31.9537 11.7958 30.6665 10.208 30.6665Z" fill="white"/>
<path d="M53.917 33.5415C53.917 30.2968 56.5473 27.6665 59.792 27.6665C63.0367 27.6665 65.667 30.2968 65.667 33.5415V52.6619C65.667 54.7061 65.1911 56.7222 64.2769 58.5505L62.592 61.9206C62.2215 62.6616 61.3205 62.962 60.5795 62.5915C59.8386 62.221 59.5382 61.32 59.9087 60.579L61.5936 57.209C62.2995 55.7971 62.667 54.2404 62.667 52.6619V33.5415C62.667 31.9537 61.3798 30.6665 59.792 30.6665C58.2042 30.6665 56.917 31.9537 56.917 33.5415V45.5204C56.917 45.5354 56.9168 45.5503 56.9163 45.5652C56.9173 46.8759 56.5065 48.1926 55.6693 49.3089L52.6011 53.3998C52.104 54.0625 51.1638 54.1969 50.5011 53.6998C49.8384 53.2027 49.7041 52.2625 50.2011 51.5998L53.2693 47.5089C54.2352 46.2211 54.1071 44.419 52.9688 43.2807C52.3058 42.6176 51.3876 42.2749 50.4522 42.3414C49.5168 42.4079 48.6563 42.877 48.0937 43.6272L43.1997 50.1526C42.6371 50.9026 42.333 51.815 42.333 52.7526V61.2498C42.333 62.0782 41.6614 62.7498 40.833 62.7498C40.0046 62.7498 39.333 62.0782 39.333 61.2498V52.7526C39.333 51.1658 39.8476 49.6219 40.7997 48.3526L45.6937 41.8272C46.7781 40.3813 48.4366 39.4771 50.2395 39.349C51.5399 39.2565 52.8231 39.5744 53.917 40.2385V33.5415Z" fill="white"/>
<path fill-rule="evenodd" clip-rule="evenodd" d="M43.75 32.0833H26.25C24.6391 32.0833 23.3333 30.7775 23.3333 29.1666V18.8461C23.3333 17.517 23.9375 16.26 24.9754 15.4298L32.1271 9.70866C33.7249 8.43045 35.9952 8.43045 37.593 9.70866L45.0246 15.6537C46.0625 16.484 46.6667 17.741 46.6666 19.0702V29.1666C46.6666 30.7775 45.3608 32.0833 43.75 32.0833Z" stroke="white" stroke-width="3" stroke-linecap="round" stroke-linejoin="round"/>
</svg>
