<svg width="811" height="806" viewBox="0 0 811 806" fill="none" xmlns="http://www.w3.org/2000/svg">
<path opacity="0.08" fill-rule="evenodd" clip-rule="evenodd" d="M310.929 11.8575C388.854 -6.88982 470.552 -2.28735 545.693 25.0829C620.833 52.4531 686.04 101.362 733.069 165.624C780.097 229.886 806.835 306.616 809.9 386.11C812.965 465.604 792.22 544.292 750.289 612.224C708.357 680.155 647.123 734.279 574.328 767.751C501.534 801.223 420.449 812.539 341.328 800.269C262.207 788 188.602 752.695 129.823 698.819C71.0432 644.943 29.7284 574.916 11.103 497.594C-13.873 393.908 3.68428 284.482 59.9125 193.389C116.141 102.296 206.434 36.9968 310.929 11.8575ZM516.693 478.023C519.378 477.229 522.196 476.985 524.975 477.306C527.754 477.628 530.436 478.508 532.858 479.893C535.281 481.277 537.392 483.138 539.064 485.362C540.737 487.585 541.934 490.125 542.585 492.826C543.236 495.527 543.326 498.334 542.849 501.074C542.373 503.814 541.34 506.432 539.814 508.767C538.287 511.101 536.3 513.105 533.971 514.655C531.643 516.205 529.023 517.269 526.271 517.783L349.55 560.299C344.353 561.269 338.985 560.222 334.555 557.375C330.124 554.527 326.969 550.095 325.74 544.995C324.512 539.894 325.303 534.513 327.952 529.962C330.6 525.411 334.903 522.038 339.973 520.538L516.693 478.023ZM565.895 620.101C561.246 617.281 555.653 616.413 550.347 617.69L373.626 660.205C368.32 661.482 363.734 664.798 360.879 669.424C358.024 674.05 357.132 679.607 358.4 684.872C359.669 690.138 362.993 694.68 367.642 697.501C372.291 700.321 377.884 701.189 383.191 699.912L559.911 657.397C565.218 656.12 569.803 652.804 572.658 648.178C575.514 643.552 576.405 637.995 575.137 632.73C573.869 627.464 570.544 622.922 565.895 620.101ZM533.51 547.838C536.195 547.043 539.013 546.8 541.792 547.121C544.571 547.442 547.254 548.322 549.676 549.707C552.098 551.092 554.21 552.953 555.882 555.176C557.554 557.4 558.752 559.939 559.403 562.641C560.053 565.342 560.143 568.148 559.667 570.889C559.19 573.629 558.157 576.246 556.631 578.581C555.105 580.916 553.117 582.919 550.789 584.47C548.46 586.02 545.84 587.084 543.088 587.598L366.368 630.113C361.17 631.084 355.802 630.037 351.372 627.189C346.942 624.341 343.787 619.91 342.558 614.809C341.329 609.708 342.121 604.327 344.769 599.777C347.417 595.226 351.72 591.853 356.79 590.353L533.51 547.838ZM707.658 473.969C709.178 471.752 710.244 469.261 710.795 466.639L710.579 466.691C721.108 417.229 719.317 366.001 705.362 317.462C691.407 268.924 665.711 224.544 630.509 188.183C595.306 151.822 551.663 124.581 503.375 108.829C455.087 93.0772 403.616 89.2912 353.44 97.8006C303.263 106.31 255.9 126.857 215.469 157.655C175.038 188.452 142.765 228.568 121.455 274.513C100.145 320.457 90.4439 370.84 93.1959 421.279C95.9479 471.717 111.069 520.684 137.245 563.921C141.389 572.82 147.378 580.747 154.82 587.184C162.262 593.622 170.991 598.426 180.439 601.283C189.888 604.141 199.842 604.989 209.655 603.771C219.469 602.553 228.92 599.297 237.394 594.215C245.869 589.133 253.176 582.339 258.84 574.275C264.504 566.211 268.398 557.058 270.268 547.412C272.138 537.767 271.942 527.845 269.694 518.293C267.445 508.741 263.194 499.772 257.217 491.972C236.395 457.403 228.592 416.591 235.191 376.767C241.79 336.943 262.365 300.679 293.27 274.4C324.175 248.121 363.414 233.524 404.035 233.195C444.656 232.867 484.036 246.829 515.197 272.606C519.282 276.002 522.409 280.393 524.274 285.352C526.142 290.375 526.621 295.806 525.661 301.084C524.777 306.335 522.497 311.261 519.057 315.352C515.617 319.443 511.141 322.551 506.094 324.354C501.059 326.245 495.607 326.753 490.314 325.823C485.092 324.794 480.238 322.418 476.241 318.934C458.385 303.956 436.193 294.994 412.847 293.334C389.502 291.673 366.202 297.4 346.291 309.692C326.38 321.984 310.881 340.21 302.016 361.755C293.152 383.301 291.377 407.058 296.948 429.621C298.213 434.872 301.528 439.402 306.165 442.215C310.801 445.028 316.379 445.893 321.671 444.62C326.963 443.346 331.536 440.039 334.384 435.426C337.232 430.813 338.121 425.271 336.856 420.02C333.507 405.962 334.65 391.204 340.128 377.792C344.333 367.725 350.859 358.772 359.179 351.657C367.499 344.542 377.381 339.463 388.027 336.83C398.673 334.197 409.784 334.083 420.466 336.499C431.147 338.915 441.099 343.792 449.518 350.737C459.169 358.714 470.77 364.023 483.158 366.133C495.546 368.244 508.285 367.08 520.099 362.76C531.912 358.44 542.384 351.116 550.465 341.52C558.545 331.925 563.95 320.397 566.137 308.092C568.416 295.748 567.329 283.034 562.988 271.27C558.613 259.545 551.223 249.17 541.551 241.175C502.855 209.139 453.921 191.819 403.462 192.299C353.003 192.779 304.295 211.027 266.012 243.794C227.729 276.561 202.355 321.719 194.41 371.228C186.465 420.737 196.464 471.383 222.626 514.145C223.138 514.996 223.715 515.806 224.354 516.568C227.923 520.876 230.166 526.115 230.818 531.662C231.47 537.209 230.502 542.83 228.03 547.857C225.558 552.883 221.686 557.103 216.874 560.015C212.063 562.926 206.515 564.405 200.891 564.277C195.267 564.125 189.808 562.387 185.152 559.265C180.517 556.14 176.896 551.747 174.725 546.616C174.347 545.703 173.887 544.826 173.35 543.995C150.413 506.51 137.074 463.992 134.498 420.149C131.922 376.305 140.186 332.466 158.57 292.454C176.955 252.441 204.901 217.47 239.973 190.588C275.044 163.705 316.178 145.729 359.786 138.224C403.395 130.72 448.156 133.916 490.166 147.534C532.177 161.151 570.162 184.777 600.811 216.352C631.46 247.927 653.843 286.492 666.007 328.685C678.171 370.879 679.749 415.42 670.601 458.427C670.05 461.05 670.023 463.753 670.524 466.382C671.024 469.011 672.041 471.515 673.518 473.751C674.994 475.987 676.9 477.91 679.127 479.412C681.354 480.914 683.859 481.964 686.498 482.503C689.137 483.043 691.86 483.06 694.509 482.554C697.158 482.049 699.683 481.031 701.939 479.557C704.195 478.084 706.139 476.185 707.658 473.969Z" fill="white"/>
</svg>
