<svg width="32" height="32" viewBox="0 0 32 32" fill="none" xmlns="http://www.w3.org/2000/svg">
<path d="M10.1647 22.6667C10.1647 22.3905 10.3885 22.1667 10.6647 22.1667H21.3313C21.6075 22.1667 21.8313 22.3905 21.8313 22.6667C21.8313 22.9428 21.6075 23.1667 21.3313 23.1667H10.6647C10.3885 23.1667 10.1647 22.9428 10.1647 22.6667Z" fill="white"/>
<path d="M10.6647 17.4989C10.3885 17.4989 10.1647 17.7228 10.1647 17.9989C10.1647 18.2751 10.3885 18.4989 10.6647 18.4989H21.3313C21.6075 18.4989 21.8313 18.2751 21.8313 17.9989C21.8313 17.7228 21.6075 17.4989 21.3313 17.4989H10.6647Z" fill="white"/>
<path d="M10.1647 13.3344C10.1647 13.0582 10.3885 12.8344 10.6647 12.8344H14.6647C14.9408 12.8344 15.1647 13.0582 15.1647 13.3344C15.1647 13.6105 14.9408 13.8344 14.6647 13.8344H10.6647C10.3885 13.8344 10.1647 13.6105 10.1647 13.3344Z" fill="white"/>
<path fill-rule="evenodd" clip-rule="evenodd" d="M4.83655 8C4.83655 5.51472 6.85127 3.5 9.33655 3.5H19.5077C20.7011 3.5 21.8457 3.97411 22.6896 4.81802L25.8519 7.98025C26.6958 8.82416 27.1699 9.96875 27.1699 11.1622V11.3314L27.1699 11.3333L27.1699 11.3353V24C27.1699 26.4853 25.1552 28.5 22.6699 28.5H9.33655C6.85127 28.5 4.83655 26.4853 4.83655 24V8ZM26.1544 10.8333C26.0782 10.0257 25.7231 9.26575 25.1447 8.68735L21.9825 5.52513C21.4041 4.94673 20.6441 4.59168 19.8365 4.51548V8.66667C19.8365 9.86328 20.8066 10.8333 22.0032 10.8333H26.1544ZM18.8365 4.5V8.66667C18.8365 10.4156 20.2543 11.8333 22.0032 11.8333H26.1699V24C26.1699 25.933 24.6029 27.5 22.6699 27.5H9.33655C7.40355 27.5 5.83655 25.933 5.83655 24V8C5.83655 6.067 7.40355 4.5 9.33655 4.5H18.8365Z" fill="white"/>
</svg>
