<svg width="32" height="32" viewBox="0 0 32 32" fill="none" xmlns="http://www.w3.org/2000/svg">
<path fill-rule="evenodd" clip-rule="evenodd" d="M13.168 13.6668C13.168 12.102 14.4365 10.8335 16.0013 10.8335C17.5661 10.8335 18.8346 12.102 18.8346 13.6668V14.8353C19.7618 14.8794 20.5 15.6451 20.5 16.5833V19.4166C20.5 20.3831 19.7165 21.1666 18.75 21.1666H13.25C12.2835 21.1666 11.5 20.3831 11.5 19.4166V16.5833C11.5 15.6443 12.2396 14.878 13.168 14.8351V13.6668ZM18.3346 15.8335L18.3189 15.8333H13.6837L13.668 15.8335L13.6522 15.8333H13.25C12.8358 15.8333 12.5 16.169 12.5 16.5833V19.4166C12.5 19.8308 12.8358 20.1666 13.25 20.1666H18.75C19.1642 20.1666 19.5 19.8308 19.5 19.4166V16.5833C19.5 16.169 19.1642 15.8333 18.75 15.8333H18.3504L18.3346 15.8335ZM17.8346 13.6668V14.8333H14.168V13.6668C14.168 12.6543 14.9888 11.8335 16.0013 11.8335C17.0138 11.8335 17.8346 12.6543 17.8346 13.6668Z" fill="white"/>
<path fill-rule="evenodd" clip-rule="evenodd" d="M14.0678 5.47253C15.214 4.62049 16.7833 4.62049 17.9295 5.47253C20.1422 7.09426 22.7649 8.06399 25.5004 8.27186L25.5168 8.27339C26.4449 8.37484 27.1519 9.15198 27.1653 10.0855L27.1654 10.0927L27.1654 17.3614C27.1654 20.0882 25.4917 22.4058 23.5368 24.1914C21.5714 25.9866 19.2394 27.3205 17.7454 28.0799C16.6502 28.6394 15.3532 28.6404 14.2571 28.0826C12.7638 27.3238 10.4307 25.988 8.46381 24.1913C6.50773 22.4045 4.83203 20.0859 4.83203 17.3614V10.0855C4.84547 9.15201 5.55245 8.37488 6.48047 8.27339L6.49695 8.27186C9.23246 8.06399 11.8551 7.09426 14.0678 5.47253ZM14.6633 6.27586C15.4559 5.68604 16.5415 5.68604 17.334 6.27586L17.3369 6.27799C19.698 8.00896 22.4964 9.04474 25.4154 9.26828C25.8371 9.31798 26.1577 9.67172 26.1654 10.0967V17.3614C26.1654 19.6675 24.7425 21.7357 22.8624 23.453C20.993 25.1606 18.7517 26.4467 17.2923 27.1884L17.2912 27.189C16.481 27.6032 15.5213 27.6041 14.7104 27.1912C13.2523 26.4503 11.0093 25.1622 9.13825 23.453C7.25641 21.734 5.83203 19.6647 5.83203 17.3614V10.0967C5.83972 9.67172 6.16028 9.318 6.58197 9.26828C9.50098 9.04473 12.2993 8.00896 14.6604 6.27799L14.6633 6.27586Z" fill="white"/>
</svg>
